<svg id="Layer_1" data-name="Layer 1" xmlns="http://www.w3.org/2000/svg" width="182.38" height="200.29" viewBox="0 0 182.38 200.29"><defs><style>.cls-1,.cls-8{fill:#fff;}.cls-2{fill:#f29ac1;}.cls-3{fill:#c07c9c;}.cls-4{opacity:0.21;}.cls-5{fill:#f9d0e2;}.cls-6{fill:#c680a0;}.cls-7{fill:#faddea;}.cls-8{opacity:0.36;}.cls-9{fill:#12352e;}.cls-10{fill:none;stroke:#002e26;stroke-miterlimit:10;stroke-width:1.81px;}.cls-11{fill:#df8fb4;}</style></defs><title>dentures</title><path class="cls-1" d="M9.39,81.91A8.5,8.5,0,0,0,2,81.44C0.89,82-.69,83.89.32,85.2c1.22,0.76,2,.66,2.91-0.29a14.94,14.94,0,0,1,1.39-1.77A4.79,4.79,0,0,1,7,82a16.68,16.68,0,0,0,2.14-.14H9.39Z"/><path class="cls-2" d="M89.15,9.73l16.58-1.67s10.38-.57,7,14.56c0,0-3.5,6.1,3.36,13s-17.41-.59-17.41-0.59L82.35,21Z"/><path class="cls-3" d="M134.47,76.57s8.47-19.41-8.07-32c0,0-13.91-30.12-33.9-25C92.49,19.6,110.7,71.77,134.47,76.57Z"/><path class="cls-1" d="M123.3,84.34a5.81,5.81,0,0,1,5.75.93A22.62,22.62,0,0,0,136,88.42l0.29,0.1a7.39,7.39,0,0,1-.64,1.15l-3,2.55-0.3.23a5.41,5.41,0,0,1-7.32-.91l-3.8-2.46a2.81,2.81,0,0,1,.26-2Z"/><g class="cls-4"><path class="cls-5" d="M121.43,87.1c0.12,1.44,1.27,2.74,3,2.09s3.35,1.21,4.86,2a26.27,26.27,0,0,0,3,1.28l0.3-.23,3-2.55a7.39,7.39,0,0,0,.64-1.15l-0.29-.1A22.61,22.61,0,0,1,129,85.28a5.81,5.81,0,0,0-5.75-.93l-0.21.07A2.57,2.57,0,0,0,121.43,87.1Z"/></g><path class="cls-1" d="M109.89,84.51a5.1,5.1,0,0,0,0,.53,4.22,4.22,0,0,0,2.61,3.4,4.48,4.48,0,0,0,6.38,2.08c0.75-.45,1.53-1,2.3-1.51,1.38-1,2.74-2.06,4-3.1,2.86-2.43,5-4.61,5-4.61l-11.68-5.6c-2.35,1.67-4.19,3.1-5.65,4.33-0.61.51-1.13,1-1.61,1.41A4.16,4.16,0,0,0,109.89,84.51Z"/><path class="cls-5" d="M109.89,84.51a5.1,5.1,0,0,0,0,.53,2.11,2.11,0,0,0,1.55-.08c1.29-.52,3.91,2.22,5,2.76a7.2,7.2,0,0,0,2.41.65c0.55,0,1.09.06,1.63,0.07l0.28,0.08a3.6,3.6,0,0,0,.44.5c1.38-1,2.74-2.06,4-3.1-0.74-1.59-3.3-2.29-5.08-2.45-2.45-.22-4.71-2.78-7.24-3.43-0.61.51-1.13,1-1.61,1.41A4.16,4.16,0,0,0,109.89,84.51Z"/><path class="cls-2" d="M126.59,86.13s27.34,14.15,28.18.4-22.39-15.82-22.39-15.82,2.47-10.53-8.47-10.55c-5,0-5.87-1-5.33-2a12.76,12.76,0,0,0,.89-10.32C116.41,39.48,110.09,27,99.1,24c0,0-3.62-.77-4.84.27s3.5-6.64,2.52-11.67S98.54-.11,91.55,1s-4.87,4.07-4.87,4.07-11.45,7-12,13.44S98.41,85.73,126.59,86.13Z"/><path class="cls-6" d="M13,100.8s57.35,14.25,64.48-3.52c3.31-8.25,7.37-8.42,10.77-6.23a10.64,10.64,0,0,1,1.32,16.67c-3.61,3.4-9.15,6.09-17.22,4.1-17.1-4.21-40.9,13-40.9,13S13.15,111.45,13,100.8Z"/><path id="bottom_plate_fill" data-name="bottom plate fill" class="cls-2" d="M109.89,125.25s13.15-14,19-4.84-9.5,26.57-9.5,26.57-27.09,24.38-50.61,6.19a29.44,29.44,0,0,1-5.31-5.51c-0.94-1.24-2.73-2.47-5.49-.1a13.45,13.45,0,0,1-17.32.29,39.47,39.47,0,0,1-5.42-5.57l-6.11-6.85a22.53,22.53,0,0,1-4.1-6.51,5.58,5.58,0,0,1-.62-3.2s-1.9,3.89-10.29.38l-4.54-2.43a8.58,8.58,0,0,1-4-10.7l0.22-.51s4-11.26,7.21-11.64,9.59-2.67,9.59-2.67S73.55,141.66,109.89,125.25Z"/><path class="cls-7" d="M44.49,106.28s4.75,3.62,6,1.78l0.19-3.75,0.15-3.07-2.15-2.37L45.16,97s-0.76-1.32-.83,3.16C44.3,101.6,44.34,103.56,44.49,106.28Z"/><path class="cls-1" d="M18.93,105.42s-7.27.45-1.54-12.74L18,91a1.41,1.41,0,0,1,2.23-.66l3.22,2.6S25.66,106.47,18.93,105.42Z"/><path class="cls-1" d="M19.08,108.33c1.79,2.53,3.38,3.12,4.75,2.59,4.12-1.63,6.26-13.5,6.26-13.5a10.07,10.07,0,0,0-.49-3.11c-1.73-4.93-7.28-2.6-7.28-2.6Z"/><polygon class="cls-1" points="32.18 100.09 34.31 94.82 40.83 96.19 36.88 103.84 32.18 100.09"/><path class="cls-1" d="M27.7,113.64c1.74,3.44,3.37,3.42,4.66,2.23,1.79-1.65,3-5.55,3-5.55l4.95-7.46a2.27,2.27,0,0,0,.08-2.34,2.2,2.2,0,0,0-.86-0.86L31,94.87C27.13,100.61,27.4,113,27.7,113.64Z"/><path class="cls-5" d="M94.29,122.48l4.33,7.78,0.08,0c0.92,0.48,9.61,4.75,11.19-5.06l2.29-5.74a14.49,14.49,0,0,0-8.52-2h0a11.45,11.45,0,0,0-3.32.82Z"/><path class="cls-1" d="M81.51,130.55a7.44,7.44,0,0,0,2,5,6.15,6.15,0,0,0,3.81,1.4,8.54,8.54,0,0,0,8.4-5.74l3.44-9.61,0.06-.17s-9.74-9.59-15.35-2.69C83.87,118.75,81.13,125.26,81.51,130.55Z"/><path class="cls-1" d="M68.21,127.61a13.67,13.67,0,0,0,3.08,5.75,3.4,3.4,0,0,0,5.35-.17,19,19,0,0,0,3.13-7.56,31.44,31.44,0,0,0,.59-4.85l-8.44-3S66.83,121.57,68.21,127.61Z"/><path class="cls-1" d="M60,133.3c3.48,1.2,6.24-4.06,7.9-9.48a41.58,41.58,0,0,0,1.71-8.36c0.38-5.43-8.89-5-8.89-5A24.83,24.83,0,0,0,57,121.82,17.61,17.61,0,0,0,60,133.3Z"/><path class="cls-1" d="M45.58,125a3.76,3.76,0,0,0,.17.44c0.66,1.63,3.37,6.89,8.71.41L59,116.13l0.13-.28L59,115.8l-10-3.25-2-.64Z"/><path class="cls-7" d="M28.85,88"/><path class="cls-1" d="M62.66,97.9l1.51,9a29.11,29.11,0,0,0,4.14.18c2.9-.08,6.36-0.7,6.88-3.12l-2.29-6.57a18,18,0,0,0-3.72-.81C67.06,96.3,64.48,96.43,62.66,97.9Z"/><path class="cls-1" d="M52.33,97.81l1.48,8.94s0.17,0.87,1.69.34l0.19-.07s5.56,1.36,6.32,0V99.76a13.66,13.66,0,0,0-3.29-2.57c-1.36-.72-2.92-1.08-4.21-0.12Z"/><path class="cls-1" d="M34.9,123.81c3,3.62,7.17-2.46,9-5.6,0.48-.82.79-1.45,0.89-1.64l0.07-.13L48.75,110a1.81,1.81,0,0,0-.64-2.51l-0.38-.22-5.26-3a1.81,1.81,0,0,0-2.41.57l-0.45.67L37.28,109a13.39,13.39,0,0,0-1.44,4.06C34.84,117.46,34.46,123.28,34.9,123.81Z"/><path class="cls-1" d="M64.22,28.48l15.13-7.59s2.92-3.5,2.2-6.57A4.22,4.22,0,0,0,80,12s-11.35,3.95-16,9.5l0,0a10.37,10.37,0,0,0-.9,1.24S62.11,27.22,64.22,28.48Z"/><path class="cls-1" d="M59.41,32a6.25,6.25,0,0,0,1.51,1.78S72,24.1,77.45,24.28a18.88,18.88,0,0,0,2.95-3.42c1.31-2.11,1.42-4.29-4.47-3.62,0,0-9.52,2.67-16.39,8.77A6.46,6.46,0,0,0,59.41,32Z"/><path class="cls-1" d="M58.25,40.13c0.13,0.36.28,0.73,0.45,1.13,1,2.42,2.53,5.36,4.17,5.61,2.1,0.31,11.79-7,16.65-10.79A8.89,8.89,0,0,0,83.08,30c0.19-2.65-.33-5.81-3.55-6.72a5.91,5.91,0,0,0-3.68.19,6,6,0,0,0-.58.25c-3.51,1.7-12.7,6.43-17.28,11.07l-0.15,1.14A8.76,8.76,0,0,0,58.25,40.13Z"/><path class="cls-1" d="M91.36,75.54L93.1,78.9l0.14,0.18a3,3,0,0,0,1.28.94,7.29,7.29,0,0,1,3.94,3.05,3.75,3.75,0,0,0,1.9,1.81c2,0.51,11-10.84,11-10.84,2-2.39.94-4.18-.85-5.43a7.86,7.86,0,0,0-8.79,0Z"/><path class="cls-1" d="M67.59,54.17v0a23.6,23.6,0,0,0,2.6,4.18l0,0c0.22,0.3.36,0.46,0.36,0.46a19.57,19.57,0,0,0,6,5.44L77,64.52a2.69,2.69,0,0,0,3.09-.27L85.22,60h0l5.36-4.48L91,55.1a11.08,11.08,0,0,0,3.73-9.48c-0.23-3.38-1.68-6.95-6.45-8.16a11.35,11.35,0,0,0-6.84.42,11.82,11.82,0,0,0-2,.94L72.27,43.7h0l-4.34,2.94C65.75,48.58,66.39,51.6,67.59,54.17Z"/><path class="cls-1" d="M80.3,65.93l0.61,3.35a7.48,7.48,0,0,0,3.59,5.15,6.41,6.41,0,0,0,.87.43c1.12,0.46,2.19.55,3-.2l9.18-9a5.65,5.65,0,0,0,.66-0.78,5.44,5.44,0,0,0,.56-5.14l-0.06-.12a5.42,5.42,0,0,0-8.45-1.92Z"/><path class="cls-5" d="M68.58,53.18v0l2.6,4.18,0,0c0.22,0.3.36,0.46,0.36,0.46a19.6,19.6,0,0,0,6,5.44L78,63.53a2.69,2.69,0,0,0,3.09-.27L86.21,59h0l2.19-6.11C86.6,57.31,79.56,60,79.56,60l1.73-3.46-8-1.21V51l0.9-4.23s-2.54,3.08-3.25.9,2.35-5,2.35-5h0l-4.34,2.94C66.74,47.59,67.38,50.61,68.58,53.18Z"/><path class="cls-5" d="M81.46,37.88a2.55,2.55,0,0,0,4.24,1.58c0.24-.23,3.14,1.32,3.43,1.53a4.84,4.84,0,0,1,2.2,3.45,14.42,14.42,0,0,1-1,8.42,2.47,2.47,0,0,0,.24,2.62L91,55.1a11.08,11.08,0,0,0,3.73-9.48c-0.23-3.38-1.68-6.95-6.45-8.16A11.35,11.35,0,0,0,81.46,37.88Z"/><path class="cls-8" d="M72.25,50.06c1.11-.71,2.17-1.43,3.17-2.19l3-2.28c2-1.54,3.91-3,6-4.52l0-.1a25.38,25.38,0,0,0-6.63,3.79A45.77,45.77,0,0,0,72.17,50Z"/><path class="cls-8" d="M63,35.82c1.11-.71,2.16-1.43,3.17-2.19l3-2.28c2-1.54,3.91-3,6-4.52l0-.1a25.36,25.36,0,0,0-6.63,3.79,45.92,45.92,0,0,0-5.6,5.22Z"/><path class="cls-8" d="M69.12,49.59c1.11-.71,2.17-1.43,3.17-2.19l3-2.28c2-1.54,3.91-3,6-4.52l0-.1a25.33,25.33,0,0,0-6.63,3.79A45.73,45.73,0,0,0,69,49.52Z"/><path class="cls-5" d="M58.7,41.26c1,2.42,2.53,5.36,4.17,5.61C65,47.18,75.21,39.76,80.08,36a8,8,0,0,0,3-6c0.19-2.65-.33-5.81-3.55-6.72a5.91,5.91,0,0,0-3.68.19A3.66,3.66,0,0,0,74.8,25.7a5.57,5.57,0,0,0,1,3.11c1.41,2.43,1.75,1.81-.28,3.1a44.19,44.19,0,0,1-3.84,2.72c-1.21.6-2.57,0.63-3.71,1.5-1,.72-1.35,1.82-2.23,2.56-0.46.39-5.62,3.22-6.3,2.86A2.37,2.37,0,0,0,58.7,41.26Z"/><path class="cls-8" d="M61.91,40.32c1.11-.71,2.17-1.43,3.17-2.19l3-2.28c2-1.54,3.91-3,6-4.52l0-.1A25.35,25.35,0,0,0,67.42,35a45.69,45.69,0,0,0-5.6,5.22Z"/><path class="cls-5" d="M59.41,32a2.46,2.46,0,0,0,1.46-1.49c1.25-3.28,5.49-4.31,8.26-5.89,3.43-2,6.65-5,10.9-3.81l0.37,0.08c1.31-2.11,1.42-4.29-4.47-3.62,0,0-9.52,2.67-16.39,8.77A6.46,6.46,0,0,0,59.41,32Z"/><path class="cls-5" d="M64,21.45c1.84-1.48,4.44-2.31,6.34-3.39,3.43-2,6.65-5,10.91-3.81l0.29,0.06A4.22,4.22,0,0,0,80,12S68.64,15.9,64,21.45Z"/><path class="cls-8" d="M60.42,28.65c1.11-.71,2.16-1.43,3.16-2.19l3-2.27c2-1.54,3.91-3,6-4.52l0-.1a25.34,25.34,0,0,0-6.63,3.79,45.66,45.66,0,0,0-5.6,5.22Z"/><path class="cls-8" d="M65.58,20c1.25-.41,2.45-0.83,3.61-1.33l3.46-1.45c1.14-.5,2.29-1,3.43-1.45s2.31-.94,3.54-1.4v-0.1a25.35,25.35,0,0,0-7.37,2,45.66,45.66,0,0,0-6.73,3.64Z"/><path class="cls-5" d="M80.3,65.93l0.61,3.35a7.48,7.48,0,0,0,3.59,5.15A2,2,0,0,0,85.3,73a9.37,9.37,0,0,0-.81-5.16l4.45-4.22c1.41-1.34,6.87-6.56,7.42-1a2.54,2.54,0,0,0,1.82,2.23,5.44,5.44,0,0,0,.56-5.14l-0.06-.12a5.42,5.42,0,0,0-8.45-1.92Z"/><path class="cls-5" d="M93.23,79.08a3,3,0,0,0,1.28.94,7.29,7.29,0,0,1,3.94,3.05,3.75,3.75,0,0,0,1.9,1.81c2,0.51,11-10.84,11-10.84,2-2.39.94-4.18-.85-5.43a7.67,7.67,0,0,0-6.78-1,2.42,2.42,0,0,0,2.39,2.66,2.44,2.44,0,0,1,1.67,1.22c0.81,0.26.69,0.64-.35,1.15a21.53,21.53,0,0,1-2.55,2.59c-1.2,1.22-2.47,2.85-3.84,4.15A3,3,0,0,0,98.74,78a2.27,2.27,0,0,0-2.06-1.17l-1.1.06A2.44,2.44,0,0,0,93.23,79.08Z"/><path class="cls-8" d="M96.71,76.9c1-.56,2-1.13,2.95-1.75s1.84-1.24,2.76-1.85c1.81-1.27,3.59-2.45,5.53-3.77l0-.1a22.36,22.36,0,0,0-6.08,3,37.55,37.55,0,0,0-5.2,4.39Z"/><path class="cls-8" d="M109,73c-1,.58-2,1.17-2.91,1.81s-1.82,1.28-2.72,1.91c-1.79,1.3-3.54,2.53-5.45,3.88l0,0.1a22.38,22.38,0,0,0,6-3.14,37.61,37.61,0,0,0,5.1-4.5Z"/><path class="cls-5" d="M98.7,130.31c0.92,0.48,9.61,4.75,11.19-5.06l2.29-5.74-8.52-2h0a2.51,2.51,0,0,0,3.06,2.85c1.12-.3-0.78,3.76-0.86,3.94-0.38.76-1.94,4.6-3.39,3.89A2.66,2.66,0,0,0,98.7,130.31Z"/><path class="cls-7" d="M81.51,130.55a7.44,7.44,0,0,0,2,5,6.15,6.15,0,0,0,3.81,1.4,8.54,8.54,0,0,0,8.4-5.74l3.44-9.61c-1.06-1.06-2.92-1.26-3.74.47a83,83,0,0,1-4,8.37c-2.22,3.58-5.5,2-8.51.42A2.44,2.44,0,0,0,81.51,130.55Z"/><path class="cls-5" d="M68.21,127.61a13.67,13.67,0,0,0,3.08,5.75,3.4,3.4,0,0,0,5.35-.17,19,19,0,0,0,3.13-7.56,2.53,2.53,0,0,0-2,.59,10,10,0,0,0-2.27,3.42l-0.28.54c-0.16.54-.38,0.6-0.65,0.19a8.94,8.94,0,0,1-1.89-1.4A5.71,5.71,0,0,0,68.21,127.61Z"/><path class="cls-5" d="M60,133.3c3.48,1.2,6.24-4.06,7.9-9.48a2.19,2.19,0,0,0-2.69,1.11c-0.54,1-1.87,3.85-3,4.25-0.67.23,0,.32-0.56-0.44a8.58,8.58,0,0,1-1.06-2.31c-0.11-1.11,1-2.65,1.44-3.9a22.08,22.08,0,0,0,.9-4.53c0.38-3.17-4.58-3.13-5,0a14.89,14.89,0,0,1-1,3.81A17.61,17.61,0,0,0,60,133.3Z"/><path class="cls-5" d="M45.74,125.45c0.66,1.63,3.37,6.89,8.71.41L59,116.13A1.7,1.7,0,0,0,59,115.8l-10-3.25a2.66,2.66,0,0,0,1.44,3.61c0.74,0.29,2.27.61,3.35,1.1-0.87,2.65-3.53,8.69-4.95,7.61A2,2,0,0,0,45.74,125.45Z"/><path class="cls-5" d="M34.9,123.81c3,3.62,7.17-2.46,9-5.6-1-1.2-3-1.53-4,.26a10.77,10.77,0,0,1-1.44,2.16c0-.44,0-0.88.08-1.32a16.56,16.56,0,0,0,.09-3.76,2.54,2.54,0,0,0-2.48-2.48l-0.32,0C34.84,117.46,34.46,123.28,34.9,123.81Z"/><path class="cls-5" d="M39.61,105.51a3.42,3.42,0,0,0,3,2.55,10.51,10.51,0,0,0,4.6-.53,2.06,2.06,0,0,0,.47-0.23l-5.26-3a1.81,1.81,0,0,0-2.41.57Z"/><path class="cls-8" d="M36.28,122.21c0.57-1.18,1.09-2.35,1.54-3.53l1.35-3.5c0.42-1.17.88-2.32,1.33-3.48s0.92-2.32,1.44-3.53l-0.08-.06a25.34,25.34,0,0,0-3.66,6.71,45.72,45.72,0,0,0-2,7.38Z"/><path class="cls-5" d="M27.7,113.64c1.74,3.44,3.37,3.42,4.66,2.23a2.09,2.09,0,0,0-1.46-1c-2.61-.55,2.48-12.32,2.65-13.9,0,0,0-.2.06-0.43a12.13,12.13,0,0,0,4.59,1.14,2,2,0,0,0,2.15-1.19,2.2,2.2,0,0,0-.86-0.86L31,94.87C27.13,100.61,27.4,113,27.7,113.64Z"/><path class="cls-5" d="M19.08,108.33c1.79,2.53,3.38,3.12,4.75,2.59a1,1,0,0,0,.06-0.24s0-.1,0-0.14a2.69,2.69,0,0,0-1.59-2.83c-0.66-1.31,1.6-7.12,1.8-8.14a30.42,30.42,0,0,0,.62-4.7,21.34,21.34,0,0,1,2.33.37,2.41,2.41,0,0,0,2.52-.94c-1.73-4.93-7.28-2.6-7.28-2.6Z"/><path class="cls-8" d="M28.18,93.91c-0.49,1.22-.93,2.42-1.29,3.63l-1.1,3.59c-0.34,1.2-.72,2.38-1.08,3.57s-0.75,2.38-1.19,3.62l0.09,0.06a25.35,25.35,0,0,0,3.18-6.95,45.6,45.6,0,0,0,1.5-7.5h-0.1Z"/><g class="cls-4"><path class="cls-1" d="M44.33,100.2a3.05,3.05,0,0,0,.64.31,5.85,5.85,0,0,1,3.17,2.68,2.22,2.22,0,0,0,2.59,1.13l0.15-3.07-2.15-2.37L45.16,97S44.4,95.72,44.33,100.2Z"/></g><path class="cls-5" d="M55.5,107.09l0.19-.07s5.56,1.36,6.32,0V99.76a13.66,13.66,0,0,0-3.29-2.57,2.22,2.22,0,0,0,0,.53c0.1,1.92.2,3.85,0.3,5.78,0,0.07,0,.66,0,1.21l-0.39-.08A2.62,2.62,0,0,0,55.5,107.09Z"/><path class="cls-5" d="M68.3,107c2.9-.08,6.36-0.7,6.88-3.12l-2.29-6.57a18,18,0,0,0-3.72-.81,2.8,2.8,0,0,0,.58,2.58,15.86,15.86,0,0,1,2.23,4l0,0.12a15.51,15.51,0,0,1-1.67.15C68.18,103.26,67.5,105.54,68.3,107Z"/><path class="cls-8" d="M108.45,120.53a18.36,18.36,0,0,0-1.19,4,29.9,29.9,0,0,0-.53,4.07,6.88,6.88,0,0,0,1-1.87,13.68,13.68,0,0,0,.56-2A12.4,12.4,0,0,0,108.45,120.53Z"/><path class="cls-8" d="M94.09,123.62a18.47,18.47,0,0,0-1.19,4,29.89,29.89,0,0,0-.53,4.07,7,7,0,0,0,1-1.87,13.66,13.66,0,0,0,.56-2A12.4,12.4,0,0,0,94.09,123.62Z"/><path class="cls-8" d="M77.34,122.6a18.48,18.48,0,0,0-1.19,4,29.91,29.91,0,0,0-.53,4.07,6.94,6.94,0,0,0,1-1.87,13.55,13.55,0,0,0,.56-2A12.38,12.38,0,0,0,77.34,122.6Z"/><path class="cls-8" d="M19.55,92.85a18.41,18.41,0,0,0-1.19,4,29.88,29.88,0,0,0-.53,4.07,6.94,6.94,0,0,0,1-1.87,13.53,13.53,0,0,0,.56-2A12.37,12.37,0,0,0,19.55,92.85Z"/><path class="cls-8" d="M55.67,117.8A18.36,18.36,0,0,0,53.12,121a29.76,29.76,0,0,0-2,3.6,6.93,6.93,0,0,0,1.6-1.38A13.55,13.55,0,0,0,54,121.6,12.39,12.39,0,0,0,55.67,117.8Z"/><path class="cls-8" d="M23.58,93.23a40.89,40.89,0,0,0-1.19,6.06c-0.26,2-.45,4.06-0.53,6.14a14.8,14.8,0,0,0,1-3,29.88,29.88,0,0,0,.56-3A27.37,27.37,0,0,0,23.58,93.23Z"/><path class="cls-8" d="M32.56,98.68a40.62,40.62,0,0,0-1.75,5.92c-0.45,2-.83,4-1.1,6.07A14.92,14.92,0,0,0,31,107.82a30.49,30.49,0,0,0,.84-3A27.39,27.39,0,0,0,32.56,98.68Z"/><path class="cls-9" d="M62.08,23.22c0.06-.42.12-0.68,0.12-0.68l0-.16,0.08-.14c2.71-4.44,9.77-8,14.11-9.84L77,12.14c1.61-.67,2.66-1,2.7-1l0.47-.16,0.39,0.31c2.15,1.69,2.59,4.3,1.26,7.32L81,20.3l-0.87-1.68C80,18.33,79.35,18,77.88,18a16.21,16.21,0,0,0-1.78.11c-0.13,0-.48.14-1,0.32a47.17,47.17,0,0,0-4.92,1.94l-1.06.49c-0.35.16-.7,0.34-1.08,0.54L67,22c-0.76.4-1.54,0.85-2.39,1.39-0.29.18-.58,0.37-0.87,0.57l-2,1.3Zm18.48-6.55A3.58,3.58,0,0,0,79.8,13l-1.55.6-0.56.24a45,45,0,0,0-11.09,6.3l0.64-.33c0.39-.2.77-0.39,1.13-0.56l1.08-.5a49.14,49.14,0,0,1,5.09-2c0.73-.25,1.16-0.37,1.16-0.37l0.13,0a18.34,18.34,0,0,1,2.06-.13A6.54,6.54,0,0,1,80.57,16.67Z"/><path class="cls-9" d="M59.37,33.48c-3.06-3.61-.72-7.75-0.62-7.92l0.18-.23a35.92,35.92,0,0,1,3.55-2.74l1.17-.77c0.89-.55,1.7-1,2.48-1.44l1.1-.59c0.39-.2.77-0.39,1.13-0.56l1.08-.5a48.85,48.85,0,0,1,5.09-2c0.73-.25,1.16-0.37,1.16-0.37l0.13,0c3.36-.38,5.26.07,6,1.44s-0.12,3.39-2.47,5.91L79,24,78.56,24a5.17,5.17,0,0,0-2.54.36l-0.35.16c-2.26,1.1-10,5-15,9.1l-0.69.57ZM78.29,22.13c1.61-1.8,2.11-3.08,1.89-3.52C80,18.33,79.35,18,77.88,18a16.21,16.21,0,0,0-1.78.11c-0.13,0-.48.14-1,0.32a47.08,47.08,0,0,0-4.92,1.94l-1.06.49c-0.35.16-.7,0.34-1.08,0.54L67,22c-0.76.4-1.54,0.85-2.37,1.38l-1.13.74a34.27,34.27,0,0,0-3.24,2.49,5.46,5.46,0,0,0,0,5,90.85,90.85,0,0,1,14.63-8.72l0.26-.12,0.17-.08a7,7,0,0,1,2.7-.54h0.3Z"/><path class="cls-9" d="M62.74,47.77c-1.83-.27-3.62-2.74-5.34-7.32a9.72,9.72,0,0,1-.46-4.67l0.19-1.44,0.21-.22a26.08,26.08,0,0,1,2.13-1.92c5-4.12,12.44-7.9,15.38-9.33l0.26-.12,0.17-.08a7,7,0,0,1,3.47-.5,6.26,6.26,0,0,1,1,.2c3,0.85,4.5,3.57,4.21,7.66-0.11,1.66-.63,4.73-2.75,6.66a2.06,2.06,0,0,1-.59.4l-0.14.08C77.79,39.27,66.17,47.79,63,47.79ZM76,24.33l-0.35.16c-2.26,1.1-10,5-15,9.1-0.69.56-1.27,1.08-1.78,1.58L58.75,36a7.92,7.92,0,0,0,.36,3.8c1.63,4.36,3.12,6,3.9,6.16h0c1.78,0,10.4-5.61,16.36-10.25a2.59,2.59,0,0,1,.46-0.27A0.62,0.62,0,0,0,80,35.37c1.75-1.58,2.11-4.35,2.19-5.47,0.23-3.23-.75-5.18-2.88-5.78A4.5,4.5,0,0,0,78.56,24a5.05,5.05,0,0,0-.57,0A5.16,5.16,0,0,0,76,24.33Z"/><g id="teeth_stroke" data-name="teeth stroke"><path class="cls-9" d="M48.75,109.42l-0.53-.1-0.16-.52a0.87,0.87,0,0,0-.4-0.5l-4.09-2.36,0-.49c-0.4-8.11.21-8.76,0.58-9.15a1.17,1.17,0,0,1,1.62,0l3.55,1.82,2.52,2.77-0.37,7.46-0.16.22a2.17,2.17,0,0,1-1.86.89A3.58,3.58,0,0,1,48.75,109.42ZM50,101.58l-1.79-2-2.82-1.45a43.31,43.31,0,0,0,0,6.71l3.24,1.86a2.74,2.74,0,0,1,1,.93l0.14,0Z"/><path class="cls-9" d="M18.87,106.33h0a4.4,4.4,0,0,1-1.06-.14l-0.14,0c-0.17,0-.35-0.11-0.54-0.18a4.06,4.06,0,0,1-.87-0.48,4.77,4.77,0,0,1-.56-0.48,5.49,5.49,0,0,1-1.38-3.66c0-.32,0-0.66,0-1,0-.19,0-0.39,0-0.58s0.08-.68.15-1,0.1-.5.15-0.75a19.66,19.66,0,0,1,.58-2.14l0.06-.19c0-.12.08-0.24,0.11-0.33s0.13-.37.18-0.51,0.15-.43.22-0.61c0.22-.59.47-1.21,0.72-1.77l0.56-1.71A2.08,2.08,0,0,1,17.43,90a2.39,2.39,0,0,1,3.31-.42l2.51,2-2.87,14.75H19.63A5.17,5.17,0,0,1,18.87,106.33Zm2.39-14L19.61,91a0.52,0.52,0,0,0-.75.13,0.39,0.39,0,0,0,0,.1L18.22,93c-0.27.62-.5,1.21-0.73,1.8-0.07.16-.13,0.33-0.2,0.54s-0.12.33-.19,0.54S17,96.1,17,96.19l-0.07.21a18.07,18.07,0,0,0-.53,2c-0.05.23-.1,0.45-0.14,0.66s-0.1.63-.13,0.93,0,0.32,0,.49,0,0.59,0,.85a3.75,3.75,0,0,0,.87,2.46,3,3,0,0,0,.34.29,2.18,2.18,0,0,0,.48.26L18,104.37l0.12,0a2.68,2.68,0,0,0,.72.11h0Z"/><path class="cls-9" d="M18.34,108.86l-0.22-.32,3.26-16.73,0.16-.75L22,90.87a9.16,9.16,0,0,1,3.21-.62c1.95,0,5.29.8,5.76,6.18,0,0.31,0,.63.05,1v0.09l0,0.09a50.64,50.64,0,0,1-1.41,5.61l0,0.12c-0.09.28-.18,0.57-0.28,0.86-0.16.49-.35,1-0.54,1.48-1.66,4.22-3.62,6.35-5.82,6.35C21.33,112,19.84,111,18.34,108.86ZM29.14,96.6c-0.27-3-1.56-4.53-4-4.53a7.31,7.31,0,0,0-2.08.33L20,108.12c1,1.36,2,2.07,2.85,2.07,1.35,0,2.81-1.85,4.14-5.21,0.18-.46.35-0.93,0.51-1.39,0.09-.28.18-0.56,0.27-0.83l0-.12a50.11,50.11,0,0,0,1.34-5.3C29.17,97.09,29.16,96.84,29.14,96.6Z"/><path class="cls-9" d="M32.54,96.8l1.22-3,8.42,1.77-2.66,5.15Zm2.33-.93L34.82,96l3.95,2.21,0.71-1.37Z"/><path class="cls-9" d="M26.9,114.05c-0.38-.73-0.34-5.19.07-8.83L27,105c0.18-.46.35-0.93,0.51-1.39,0.09-.28.18-0.56,0.27-0.83l0-.12a50.08,50.08,0,0,0,1.34-5.3c0-.26,0-0.5,0-0.74l0-.25,0.1-.23a13.08,13.08,0,0,1,1-1.77l0.47-.7,8.92,5,0.34,0.19a3.16,3.16,0,0,1,1.1,4.5l-4.87,7.35c-0.43,1.4-2.3,6.79-5.36,6.79C29.35,117.5,28.07,116.37,26.9,114.05ZM31,96.68c0,0.23,0,.46,0,0.71v0.09l0,0.09a50.64,50.64,0,0,1-1.41,5.61l0,0.12c-0.09.28-.18,0.57-0.28,0.86-0.15.45-.32,0.91-0.5,1.37a39.5,39.5,0,0,0-.21,7.76c0.78,1.52,1.6,2.38,2.24,2.38,1.35,0,3-3.36,3.66-5.63l5.06-7.7a1.35,1.35,0,0,0-.47-1.92l-7.76-4.35C31.17,96.28,31.07,96.48,31,96.68Z"/><path class="cls-9" d="M98.18,131.05l-0.23-.13-1.88-3.38,2.1-5.85c-0.25-.22-0.59-0.52-1-0.85l-1-.76,3.65-2.5,0.17-.09a12.66,12.66,0,0,1,4.86-1,15.56,15.56,0,0,1,7.83,2.22l0.62,0.41-2.53,6.34c-1,5.82-4.35,7.05-7,7.05A12.88,12.88,0,0,1,98.18,131.05Zm6.67-12.7a10.86,10.86,0,0,0-4.08.78l-1.55,1.07c0.41,0.36.64,0.59,0.65,0.6l0.41,0.41-2.21,6.18,1.22,2.2a10.91,10.91,0,0,0,4.47,1.15c2.91,0,4.63-1.84,5.24-5.63l2-5.2A13.89,13.89,0,0,0,104.84,118.35Z"/><path class="cls-9" d="M87.27,137.86a7.06,7.06,0,0,1-4.38-1.64c-1.81-1.71-2.57-4.48-2.27-8.25A35.56,35.56,0,0,1,83,118.4l0.13-.22a7.16,7.16,0,0,1,5.77-2.83c3.5,0,7,2.21,9.33,4.07a18.9,18.9,0,0,1,1.6,1.38l0.41,0.41-3.69,10.31a9.45,9.45,0,0,1-8.82,6.35H87.27Zm9.87-17c-1.72-1.37-5.07-3.68-8.21-3.68a5.33,5.33,0,0,0-4.28,2.06,34.09,34.09,0,0,0-2.22,8.89c-0.25,3.19.32,5.47,1.72,6.79A5.3,5.3,0,0,0,87.37,136a7.65,7.65,0,0,0,7.49-5.14l3.3-9.21C97.92,121.47,97.57,121.18,97.14,120.84Z"/><path class="cls-9" d="M70.59,133.95c-2.67-3.17-3.84-6.39-3.47-9.56A11.66,11.66,0,0,1,71.39,117l0.39-.29,9.53,3.4,0,0.67a30.17,30.17,0,0,1-1.12,7.05l-0.19.65h0a18.3,18.3,0,0,1-2.58,5.2,4.26,4.26,0,0,1-3.47,1.76A4.32,4.32,0,0,1,70.59,133.95Zm8.83-12.54-7.31-2.61a9.82,9.82,0,0,0-3.19,5.81c-0.31,2.65.72,5.4,3.05,8.17a2.51,2.51,0,0,0,1.92.9,2.47,2.47,0,0,0,2-1,17,17,0,0,0,2.5-5.29l0.14-.45A28.23,28.23,0,0,0,79.42,121.41Z"/><path class="cls-9" d="M59.73,134.16l-0.25-.09-0.16-.2A18.73,18.73,0,0,1,56.26,120l1.62-3.55-0.74-.24,0.31-.88a27.83,27.83,0,0,1,1.75-3.9c0.24-.44.5-0.9,0.78-1.36l0.25-.42,0.49,0h0.54a17.49,17.49,0,0,1,5,.69l0.15,0c3.64,1.21,4.26,3.51,4.14,5.23a42.68,42.68,0,0,1-1.93,9.15c-1.42,4.43-3.9,9.7-7.59,9.7A4,4,0,0,1,59.73,134.16ZM65.83,112a15.71,15.71,0,0,0-4.55-.65l-0.49.87a26.68,26.68,0,0,0-1.3,2.77l0.9,0.29-2.36,5a17.5,17.5,0,0,0,2.54,12.17,2.07,2.07,0,0,0,.44,0c2,0,4.17-3.16,5.87-8.44a41,41,0,0,0,1.85-8.72c0-.57.16-2.31-2.76-3.33Z"/><path class="cls-9" d="M44.71,125.29l-0.06-.18L46,112.83,47.1,111l13.3,4.33-5.11,10.93-0.12.19c-1.9,2.31-3.75,3.48-5.49,3.48C46.21,129.92,44.77,125.48,44.71,125.29Zm13.17-8.89-10-3.25-0.16.27L46.5,124.91c0.26,0.67,1.34,3.2,3.17,3.2,1.14,0,2.53-.94,4-2.73Z"/><path class="cls-10" d="M28.85,88"/><path class="cls-9" d="M64,107.76l-0.67-.09-1.7-10.13,0.41-.33a8.54,8.54,0,0,1,5.51-1.67,18.56,18.56,0,0,1,5.61,1l0.41,0.15,2.52,7.22-0.05.25c-0.54,2.52-3.5,3.86-8.54,3.86A29.5,29.5,0,0,1,64,107.76Zm8.14-9.69a16.79,16.79,0,0,0-4.6-.72,7.25,7.25,0,0,0-3.95,1l1.3,7.72c0.59,0.05,1.53.12,2.58,0.12,1.81,0,6-.22,6.71-2.2Z"/><path class="cls-9" d="M60,108.52a21.82,21.82,0,0,1-4.23-.55c-1.65.55-2.68-.23-2.84-1.07l-1.6-9.69,2.76-.95a3.85,3.85,0,0,1,2.21-.68c3.11,0,6.25,3.42,6.38,3.57l0.24,0.26v7.81l-0.11.2c-0.6,1.1-2.26,1.11-2.82,1.11h0Zm1.11-8.4c-0.93-.94-3.05-2.73-4.8-2.73A2,2,0,0,0,55,97.8l-1.68.62,1.31,7.94a2.17,2.17,0,0,0,.69-0.18l0.27-.11,0.28,0.07a21.25,21.25,0,0,0,4.07.57,3.83,3.83,0,0,0,1.12-.12v-6.46Z"/><path class="cls-9" d="M34.18,124.36a2.68,2.68,0,0,1-.36-1.68c-0.09-2.95.84-11.34,2.71-14.17l2.76-4.18a2.78,2.78,0,0,1,3.62-.85l5.65,3.26a2.73,2.73,0,0,1,1,3.76l-3.93,6.44c-0.05.12-.19,0.38-0.39,0.75-1.63,3-4.86,8.14-8.2,8.14A3.63,3.63,0,0,1,34.18,124.36ZM42,105.05a0.92,0.92,0,0,0-1.19.28l-2.73,4.14-0.05.07c-1.51,2.28-2.49,10.07-2.4,13.1a4.51,4.51,0,0,0,0,.69A1.78,1.78,0,0,0,37,124c1.67,0,4.26-2.82,6.6-7.18,0.16-.31.29-0.54,0.34-0.67l4-6.62a0.89,0.89,0,0,0,.08-0.75,0.87,0.87,0,0,0-.4-0.5l-2.54-1.46Z"/></g><path class="cls-9" d="M131.44,123.54a9.84,9.84,0,0,0-1.26-3.54l-0.12-.2-0.08-.13-0.06-.08-0.24-.34a9.39,9.39,0,0,0-.63-0.76,7.75,7.75,0,0,0-1.49-1.27,7,7,0,0,0-3.75-1.13,10.49,10.49,0,0,0-3.62.64,22.62,22.62,0,0,0-6,3.39,39.53,39.53,0,0,0-5,4.53l-0.19.21,0,0.27h0a9.72,9.72,0,0,1-1.07,3.27,4.45,4.45,0,0,1-2.32,2,6.25,6.25,0,0,1-3.26.18,11.85,11.85,0,0,1-3.07-1l-0.78-1.41-0.3-.53-0.63.07-1,.13-0.56.07-0.19.53c-0.36,1-.72,2.07-1.08,3a7.89,7.89,0,0,1-1.59,2.38,7.52,7.52,0,0,1-5.1,2.29,6.69,6.69,0,0,1-2.76-.49,3.8,3.8,0,0,1-1.06-.64,5.49,5.49,0,0,1-.48-0.53,4.24,4.24,0,0,1-.37-0.55,10.12,10.12,0,0,1-.89-5.73l0.06-.83-0.83-.14q-1.1-.18-2.19-0.41l-0.1,0H78.59l-0.19.66a17.45,17.45,0,0,1-2.14,4.77l-0.34.49-0.22.27c-0.07.08-.11,0.1-0.16,0.16a2.51,2.51,0,0,1-.85.5,2.47,2.47,0,0,1-2-.16,2.7,2.7,0,0,1-.79-0.64c-0.3-.36-0.55-0.68-0.81-1a14,14,0,0,1-1.32-2.22,8.9,8.9,0,0,1-.88-4.87l0.09-.72-0.7-.24-0.21-.07-0.94-.33-0.29.88a26.35,26.35,0,0,1-2.49,5.69A8,8,0,0,1,62.52,132a2.32,2.32,0,0,1-2,.5,14.05,14.05,0,0,1-1.38-2.56,17.23,17.23,0,0,1-1-3.14,18.79,18.79,0,0,1-.17-6.57l0.89-6.1-2.61,5.59-2.64,5.65a11.87,11.87,0,0,1-1.91,1.88,3.65,3.65,0,0,1-2.18.87,2.64,2.64,0,0,1-1.9-1.07,7.34,7.34,0,0,1-1.21-2.14l1.1-10.15,0.07-.62-0.57-.29-0.52-.29-0.77-.45-0.46.76-1,1.72a9.2,9.2,0,0,0-.52.93l-0.46.86a30.87,30.87,0,0,1-2.1,3.28,12.74,12.74,0,0,1-2.56,2.7,3.37,3.37,0,0,1-1.41.65,1.52,1.52,0,0,1-1.2-.34,3,3,0,0,1-.28-0.25l-0.07-.08a5.43,5.43,0,0,1-.06-0.71c0-.62,0-1.28.05-1.93,0.08-1.31.23-2.62,0.41-3.92s0.42-2.6.72-3.86a11.5,11.5,0,0,1,1.27-3.43l0.53-.78-0.77-.5-0.77-.5-0.75-.49-0.5.75-1.25,1.88-0.07.1,0,0.14a16.35,16.35,0,0,1-2.09,4.43,2.73,2.73,0,0,1-1.45,1.18,1.67,1.67,0,0,1-1.38-.82,7.42,7.42,0,0,1-.66-1l-0.29-.53,0-.06,0-.23c-0.07-.79-0.08-1.67-0.07-2.52a51.16,51.16,0,0,1,.32-5.13l0.77-6.8L27,105a19.57,19.57,0,0,1-1.33,2.78,6.33,6.33,0,0,1-1.82,2.1,1.79,1.79,0,0,1-2.08,0A6.83,6.83,0,0,1,20,108.11l0.48-2.46,0.21-1.06-1.1,0a4.36,4.36,0,0,1-.56,0H18.73l-0.19,0a3.44,3.44,0,0,1-.39-0.08l-0.13,0H17.72l-0.16.06a3.58,3.58,0,0,1-1.71.21c-0.29,0,.39-0.69.1-0.79-0.13,0,.13-0.67,0-0.74l-1.17-2.45v-1l-1.48.16-0.41.06-0.3.05a2.63,2.63,0,0,0-.35.11,3.85,3.85,0,0,0-1,.61,8.52,8.52,0,0,0-1.38,1.49,23.8,23.8,0,0,0-2,3.22,59,59,0,0,0-3,6.76l0-.08a9.47,9.47,0,0,0-.89,3.48,9.27,9.27,0,0,0,.5,3.56,9.69,9.69,0,0,0,4.57,5.35l4.54,2.44,0,0,0,0a18.84,18.84,0,0,0,5.6,1.5,8.42,8.42,0,0,0,3.07-.27,6.43,6.43,0,0,0,1.16-.51s0,0.09,0,.13a13.91,13.91,0,0,0,.62,1.84c0.21,0.54.49,1.16,0.78,1.73s0.6,1.12.93,1.66a24.73,24.73,0,0,0,2.23,3.07l2.37,2.77c1.56,1.84,3.19,3.67,4.69,5.52a34.52,34.52,0,0,0,5.43,5.28,14.6,14.6,0,0,0,7.51,2.7A15.2,15.2,0,0,0,56,150.78a13.58,13.58,0,0,0,1.75-1c0.28-.19.55-0.39,0.82-0.6l0.71-.58a4.09,4.09,0,0,1,1.09-.63,1.31,1.31,0,0,1,.81-0.06,1.69,1.69,0,0,1,.75.51l0.2,0.23L62.42,149,63,149.72a32.46,32.46,0,0,0,30.81,11.45A49,49,0,0,0,108,156.42c14.73-7.82,22.1-23.58,22.75-25.81A16.45,16.45,0,0,0,131.44,123.54Zm-95.74-.15h0Zm-7.16-10.12,0,0Zm99.52,16.53a32,32,0,0,1-2.52,5.72,62.28,62.28,0,0,1-7.29,10.31,59.31,59.31,0,0,1-11.71,7.62,45.61,45.61,0,0,1-13.25,4.34A31.29,31.29,0,0,1,79.67,157a30,30,0,0,1-11.78-6.78,29.64,29.64,0,0,1-2.31-2.53L65,147l-0.28-.36c-0.12-.16-0.25-0.31-0.39-0.46a4.92,4.92,0,0,0-2.27-1.41,4.59,4.59,0,0,0-2.76.14,7.21,7.21,0,0,0-2,1.17l-0.69.57c-0.21.16-.42,0.33-0.64,0.48a12.74,12.74,0,0,1-1.37.84,12.09,12.09,0,0,1-6.2,1.39,11.67,11.67,0,0,1-6-2,32.07,32.07,0,0,1-5.06-4.71c-1.58-1.88-3.27-3.58-4.9-5.38l-2.46-2.66a22.51,22.51,0,0,1-2.14-2.72c-0.32-.48-0.62-1-0.9-1.48s-0.53-1-.79-1.55a12.39,12.39,0,0,1-.62-1.56c-0.12-.34-0.27-0.73-0.34-1a0.21,0.21,0,0,0,0-.13,0.4,0.4,0,0,1,0-.13s-0.39-1.29-1.17-.74l-0.3.21a0.23,0.23,0,0,0-.11.08,7.1,7.1,0,0,1-1.59.86,6.65,6.65,0,0,1-2.41.2,17.06,17.06,0,0,1-5-1.35L10,122.85a7.87,7.87,0,0,1-3.71-4.35,7.43,7.43,0,0,1-.41-2.86,7.58,7.58,0,0,1,.72-2.81l0,0,0,0a57.78,57.78,0,0,1,2.85-6.53,22.11,22.11,0,0,1,1.82-3,6.8,6.8,0,0,1,1.08-1.17l0.25-.18,2.47,0.2,0.61,1.14L16,104.59a3.48,3.48,0,0,0,1.07.34c0.4,0.15-.19.19,0.25,0.25,0.77,0.1.06,0.88,0.8,0.64,0.12,0,.06.46,0.18,0.47l0.26,0-0.36,1.85-0.08.39,0.23,0.31a9.14,9.14,0,0,0,2.52,2.53,3.93,3.93,0,0,0,2,.61,3.66,3.66,0,0,0,2-.6,6.82,6.82,0,0,0,1.81-1.82c0,0.32,0,.63,0,0.95,0,0.9,0,1.77.08,2.71,0,0.12,0,.24.05,0.4a1.64,1.64,0,0,0,.13.4L27,114.2l0.34,0.61a9.43,9.43,0,0,0,.83,1.19,4.79,4.79,0,0,0,1.21,1.07,2.76,2.76,0,0,0,1.86.38,4.35,4.35,0,0,0,2.63-1.89,13.86,13.86,0,0,0,.86-1.4q-0.22,1.16-.39,2.33c-0.19,1.35-.34,2.7-0.43,4.07,0,0.69-.07,1.37-0.06,2.09a5.65,5.65,0,0,0,.13,1.22,1.41,1.41,0,0,0,.13.33l0.07,0.11,0.07,0.09h0l0,0,0.2,0.22a4.56,4.56,0,0,0,.47.42,3.36,3.36,0,0,0,2.56.71,5.1,5.1,0,0,0,2.22-1,14.43,14.43,0,0,0,3-3.09,32.71,32.71,0,0,0,2.23-3.48l0.49-.91,0.13-.26-0.85,7.84,0,0.2,0.06,0.17a9.09,9.09,0,0,0,1.62,2.92,4.44,4.44,0,0,0,3.22,1.7,5.4,5.4,0,0,0,3.32-1.23,13.79,13.79,0,0,0,2.29-2.25l0.07-.09,0-.11,0.82-1.75a19.69,19.69,0,0,0,.35,2.67,19.13,19.13,0,0,0,1.07,3.47,15.16,15.16,0,0,0,1.8,3.24l0.15,0.2,0.26,0.09a3.92,3.92,0,0,0,2.07.13,4.63,4.63,0,0,0,1.8-.84,9.73,9.73,0,0,0,2.33-2.68A22.48,22.48,0,0,0,67.37,128a11.79,11.79,0,0,0,.8,2.26,15.85,15.85,0,0,0,1.5,2.51c0.27,0.38.6,0.79,0.88,1.14A4.52,4.52,0,0,0,71.89,135a4.3,4.3,0,0,0,4.9-.61c0.11-.11.25-0.24,0.33-0.33l0.22-.27c0.21-.28.3-0.42,0.45-0.65a18.75,18.75,0,0,0,2.11-4.48l0.68,0.13a11.05,11.05,0,0,0,1.17,6,5.78,5.78,0,0,0,.53.78,7,7,0,0,0,.59.66,5.37,5.37,0,0,0,1.65,1.05,8.47,8.47,0,0,0,3.52.63A9.33,9.33,0,0,0,94.38,135a9.73,9.73,0,0,0,2-2.94c0.34-.86.61-1.64,0.9-2.44l0.58,1L98,130.94l0.22,0.11a13.59,13.59,0,0,0,3.85,1.34,8,8,0,0,0,4.21-.26,6.28,6.28,0,0,0,3.26-2.84,11.16,11.16,0,0,0,1.23-3.58,39.18,39.18,0,0,1,4.72-3.91,20.48,20.48,0,0,1,5.47-2.88,5.82,5.82,0,0,1,5.23.4,5.28,5.28,0,0,1,1,.89c0.15,0.18.28,0.35,0.4,0.51l0.22,0.34,0.06,0.09,0,0,0.08,0.15a7.23,7.23,0,0,1,.86,2.61A13.76,13.76,0,0,1,128.05,129.79Z"/><path class="cls-9" d="M46.12,112.58l1.85-3a0.89,0.89,0,0,0,.09-0.74l-0.48-1.46,1.51,0.29a1.33,1.33,0,0,0,.57,0l0.11-2.38,0.88,0,2.24,0h1.6l0.17,1.07a2.17,2.17,0,0,0,.69-0.18l0.27-.11,0.28,0.07a21.21,21.21,0,0,0,4.07.57,3.83,3.83,0,0,0,1.12-.12v-1.69l0.8-.1c0.64-.08,1.27-0.18,1.89-0.27l0.89-.14L64.94,106c0.59,0.05,1.53.12,2.58,0.12,1.81,0,6-.22,6.71-2.2l-1-2.85,0.51-.4a9,9,0,0,0,2.88-3.75c2.13-5.3,4.84-8,8.07-8a7.49,7.49,0,0,1,4,1.34,11.18,11.18,0,0,1,5.1,8.44,11.69,11.69,0,0,1-3.65,9.65c-4.86,4.56-11,6.05-18.06,4.31a22.86,22.86,0,0,0-5.48-.63H66.11l-0.29,0a15.71,15.71,0,0,0-4.55-.65l-0.49.88-0.21.38-0.42.08a52,52,0,0,0-7.1,1.93l-0.29.1ZM60,110l0.25-.42,0.49,0h0.54a17.47,17.47,0,0,1,5,.69h0.4a24.66,24.66,0,0,1,5.92.69c6.42,1.58,12,.26,16.38-3.87A9.89,9.89,0,0,0,92,98.9a9.38,9.38,0,0,0-4.27-7.09,5.74,5.74,0,0,0-3.05-1c-2.41,0-4.56,2.3-6.39,6.85a10.64,10.64,0,0,1-2.94,4.08l0.75,2.15-0.05.25c-0.54,2.52-3.5,3.86-8.54,3.86a29.5,29.5,0,0,1-3.49-.2l-0.67-.09-0.2-1.22-0.27,0v0.72l-0.11.2c-0.6,1.11-2.27,1.11-2.82,1.11a21.82,21.82,0,0,1-4.23-.55c-1.51.51-2.51-.1-2.78-0.86H51.5l-0.06,1.27-0.16.22a2.1,2.1,0,0,1-1.39.86,2.75,2.75,0,0,1-.37,1.05l-0.65,1.06,3.88,1.27A54.07,54.07,0,0,1,59.4,111Z"/><polygon id="crack" class="cls-9" points="86.23 117.24 90.98 121.34 90.84 120.8 89.52 126.32 89.6 126.21 86.86 128.42 89.84 126.55 89.89 126.52 89.92 126.44 91.88 121.11 91.98 120.83 91.73 120.56 87.49 115.94 86.23 117.24"/><polygon id="crack-2" data-name="crack" class="cls-9" points="48.34 112.38 48.29 117.31 48.29 117.44 48.32 117.49 49.86 120.01 48.94 117.21 48.97 117.39 50.14 112.61 48.34 112.38"/><path class="cls-9" d="M68.69,53.36L70.59,50l-0.58.4,5.7-1.59-0.31,0a17.06,17.06,0,0,0,2.4.49,16.5,16.5,0,0,0,2.41.15,8.94,8.94,0,0,0,4.6-1.17,8.67,8.67,0,0,1-4.57.6A15.72,15.72,0,0,1,78,48.42a16.18,16.18,0,0,1-2.17-.72l-0.12-.05-0.19,0-5.85.9-0.32,0L69,49l-2.29,3.14Z"/><path class="cls-9" d="M42.32,119.27L44.9,118c0.64-.31,1.31-0.62,2-0.92l0.48-.21,0.81-7.67-4.23,6.94c-0.06.13-.18,0.35-0.34,0.67Z"/><path class="cls-9" d="M76.53,65.3l-0.37-.22c-1.21-.69-3.69-3.32-5.75-6.1a29.9,29.9,0,0,1-3.52-5.92c-1.7-4-.71-6.09.42-7.1L79,38a13.68,13.68,0,0,1,1.86-.91,12.43,12.43,0,0,1,7.65-.54c4.35,1.1,6.82,4.21,7.14,9a12,12,0,0,1-4,10.23L80.66,64.95A3.59,3.59,0,0,1,76.53,65.3Zm5-26.49a11.75,11.75,0,0,0-1.56.76l-11.5,7.79c-1.2,1.12-.62,3.33.09,5a27.43,27.43,0,0,0,3.3,5.54,26.93,26.93,0,0,0,5.2,5.61l0.38,0.22a1.82,1.82,0,0,0,2.05-.18L89.85,54.9l0.59-.5a10.23,10.23,0,0,0,3.4-8.72c-0.27-4-2.21-6.44-5.77-7.34A10.14,10.14,0,0,0,85.57,38,10.81,10.81,0,0,0,81.55,38.82Z"/><path class="cls-9" d="M78,22.45l-1.25,1.33L78.57,24a4.43,4.43,0,0,1,.72.14c2.14,0.61,3.11,2.55,2.88,5.78a8.41,8.41,0,0,1-2.34,5.43l-0.48.43,0.25,0.59c0.14,0.34.23,0.59,0.32,0.83a11.76,11.76,0,0,0,.46,1.16l0.36,0.78,0.8-.32a10.6,10.6,0,0,1,6.53-.47c3.56,0.9,5.51,3.37,5.77,7.34a10.23,10.23,0,0,1-3.4,8.72l-1.18,1,0.39,0.66L90,56.65c-0.13.09-.26,0.18-0.38,0.29l-9.93,8.29-0.41.34L80,69.44a8.36,8.36,0,0,0,5,6.25,5,5,0,0,0,1.89.42,2.83,2.83,0,0,0,2-.81l8.23-8.11q0.84,1.1,1.71,2.18l-8.72,5.87,2.19,4.21a4,4,0,0,0,1.85,1.43,6.34,6.34,0,0,1,3.45,2.67,4.39,4.39,0,0,0,2.45,2.22,1.45,1.45,0,0,0,.36,0c0.59,0,2,0,7.81-6.73,0.75,0.63,1.5,1.23,2.25,1.78A5,5,0,0,0,109,84.51a5.13,5.13,0,0,0,2.87,4.62A5.42,5.42,0,0,0,116.66,92a5.31,5.31,0,0,0,2.72-.75c0.54-.32,1.13-0.71,1.78-1.15l3.21,2.08a6.32,6.32,0,0,0,8.81.69l2.36-2a37.94,37.94,0,0,0,11.81,2.51c6.55,0,8.15-3.73,8.35-6.86,0.66-10.68-12.15-14.71-18.62-16.06,1.14-6.63,1-18.07-9.94-26.57-0.78-1.64-5.91-12-14.17-19.12a6.88,6.88,0,0,1,.6-1.79l0.1-.25c1.26-5.69.79-10-1.4-12.68a8.31,8.31,0,0,0-6.38-3h-0.2L97.44,8c0-2.74,0-5.33-1.47-6.84-1-1-2.52-1.35-4.56-1-3.24.52-5.12,1.49-5.73,3a2.63,2.63,0,0,0-.12,1.64,41.4,41.4,0,0,0-8.92,7.68l-2.26,2.78,3.31-1.37c0.92-.38,1.66-0.66,2.11-0.83,1.14,1.15,1.26,2.78.36,4.84L80,18.22l0.19,0.38C80.42,19.08,79.84,20.49,78,22.45Zm33.9-.15a8.22,8.22,0,0,0-.5,1.27l-0.4-.29-0.79-.58c-0.35-.25-0.7-0.48-1-0.71l-0.8-.5c-0.35-.21-0.7-0.41-1-0.6l-0.8-.43c-0.36-.18-0.71-0.34-1.07-0.5l-0.79-.34c-0.37-.15-0.74-0.27-1.1-0.4L102.79,19c-0.39-.12-0.79-0.21-1.18-0.3l-0.69-.17c-0.48-.1-1-0.16-1.43-0.22L99,18.2c-0.61-.06-1.21-0.1-1.82-0.1,0-.16.06-0.3,0.1-0.46s0.1-.46.15-0.68c0.08-.38.14-0.74,0.19-1.1,0-.2.06-0.4,0.08-0.6,0-.37,0-0.71.05-1.05,0-.15,0-0.31,0-0.46a8.58,8.58,0,0,0-.14-1.35,10.61,10.61,0,0,1-.15-1.1c0-.08,0-0.16,0-0.25,0-.38,0-0.78-0.05-1.21,0,0,0,0,0,0L105.82,9a6.62,6.62,0,0,1,5,2.31C112.65,13.53,113,17.24,111.9,22.3ZM135.28,70.2h0l-0.89-.14-0.2,0-0.71-.1c0.2-1.65.29-5-1.72-7.54-1.63-2.07-4.25-3.12-7.79-3.12s-4.38-.5-4.55-0.65l0-.05a13.57,13.57,0,0,0,.94-11,64.2,64.2,0,0,0-4.27-9.36c-4.61-8.23-10.24-13.29-16.73-15a14.9,14.9,0,0,0-2.83-.31,8.05,8.05,0,0,0-1,.05l0.28-.7,0.09-.22,0.22-.56,0.12-.33,0.19-.52,0.15-.41,0.07-.2h0.45c4.76,0,9.56,2,14.26,6,8.73,7.35,14.13,18.93,14.18,19l0.09,0.2,0.18,0.14C136.23,53.19,136.34,64,135.28,70.2ZM122.74,89l0.22-.17,0.87-.67,0.37-.29,0.86-.7,0.24-.2c0.36,0,.71,0,1.06.06,0.77,0.39,3.6,1.79,7.2,3.18L132,91.52a4.5,4.5,0,0,1-6.34-.57l-0.21-.18Zm-11.95-4.5a3.24,3.24,0,0,1,1.06-2.41l0.19-.18a34.3,34.3,0,0,0,5.36,3L117.6,85l1.09,0.44,0.27,0.1,1,0.35L120.28,86l1.06,0.3,0.23,0.06c0.42,0.11.85,0.2,1.27,0.29l-0.15.12-0.74.57-0.31.24-1,.73c-0.83.59-1.54,1.06-2.18,1.43a3.5,3.5,0,0,1-1.79.5,3.61,3.61,0,0,1-3.3-2.16l-0.15-.34-0.34-.14A3.32,3.32,0,0,1,110.8,84.51ZM92.54,75.84l9.64-6.49a7,7,0,0,1,7.77,0,3.16,3.16,0,0,1,1.54,2,2.85,2.85,0,0,1-.86,2.12s-1.39,1.74-3.12,3.77c-5.17,6-6.7,6.68-7,6.76a3.12,3.12,0,0,1-1.29-1.39,8.25,8.25,0,0,0-4.42-3.44,2.17,2.17,0,0,1-.94-0.75ZM90.82,58.33a4.1,4.1,0,0,1,.84-0.56h0a4.58,4.58,0,0,1,2.06-.49,4.45,4.45,0,0,1,4.1,2.65l0.08,0.17a4.48,4.48,0,0,1-1,4.87l-0.22.21h0l-0.57.55h0L87.7,74c-0.41.4-1,.39-2,0a6.53,6.53,0,0,1-3.91-4.89l-0.52-2.83ZM80.32,22.55c1.39-1.75,1.94-3.2,1.64-4.33,1.15-2.88.66-5.35-1.4-7l-0.2-.16a46.34,46.34,0,0,1,6.8-5.22L88,5.36s5.14-4.84,6.69-2.94c0.88,1.08,1,3.33.94,5.59V8.17h0V9a19.61,19.61,0,0,0,.26,3.77,12.75,12.75,0,0,1-.74,6h0c-0.44,1.39-1,2.68-1.36,3.61-0.23.56-.41,1-0.51,1.3l-0.1.31v0a1,1,0,0,0,.14.85l0.27,0.38h0.5a1.17,1.17,0,0,0,.74-0.3,2.64,2.64,0,0,1,1.67-.34,13.37,13.37,0,0,1,2.4.26c6,1.61,11.21,6.38,15.57,14.17a62.52,62.52,0,0,1,4.15,9.1,11.77,11.77,0,0,1-.84,9.58,2,2,0,0,0-.24.86,1.67,1.67,0,0,0,.17.81l0.07,0.13c0.66,1.08,2.49,1.55,6.14,1.56a13.42,13.42,0,0,1,1.69.11l0.37,0c0.22,0,.43.09,0.64,0.13l0.28,0.06c0.24,0.06.47,0.14,0.7,0.22l0.14,0c0.2,0.08.39,0.17,0.58,0.26L128.49,62c0.17,0.09.33,0.2,0.49,0.3l0.19,0.12c0.15,0.11.29,0.23,0.42,0.35l0.18,0.14a5.18,5.18,0,0,1,.38.41l0.14,0.15c2,2.56,1.34,6.41,1.23,6.94v0.06l-0.24,1,1,0.09s1.44,0.13,3.53.52c5.62,1.06,18.63,4.59,18,14.34-0.22,3.52-2.29,5.16-6.54,5.15-6,0-14.31-3.49-18.18-5.28l-0.06,0-0.32-.15-0.19-.09-0.21-.1-0.23-.11L128,85.81l-0.24-.11-0.09,0-0.23-.12,0,0-0.23-.12L127,85.31l-0.17-.09h-0.23c-0.59,0-1.19-.06-1.79-0.12L124.14,85q-0.65-.09-1.3-0.23l-0.61-.13c-0.6-.15-1.21-0.31-1.82-0.52L119.91,84q-0.7-.25-1.4-0.54l-0.76-.34c-0.4-.18-0.79-0.38-1.19-0.58l-0.77-.4q-0.85-.47-1.71-1c-0.35-.22-0.7-0.46-1-0.7a43.66,43.66,0,0,1-3.57-2.67l0,0,0.21-.25,0.36-.44,0.19-.23,0.32-.39,0.18-.22,0.28-.34,0.16-.19,0.23-.29,0.12-.14L111.7,75l0.11-.13,0.08-.1,0.08-.1,0.05-.07a4.52,4.52,0,0,0,1.26-3.5,4.83,4.83,0,0,0-2.3-3.24,8.81,8.81,0,0,0-9.82,0l-0.75.5c-0.66-.81-1.3-1.63-1.93-2.46,0.06-.06.1-0.14,0.15-0.2l0.25-.33c0.1-.14.19-0.28,0.27-0.42l0.2-.36c0.08-.15.14-0.3,0.2-0.45s0.1-.25.15-0.38,0.09-.32.13-0.48,0.07-.26.09-0.39,0-.33.07-0.5,0-.26,0-0.39,0-.35,0-0.53,0-.25,0-0.37-0.06-.39-0.1-0.58,0-.21-0.06-0.31a6.31,6.31,0,0,0-.29-0.88l-0.9.23,0.83-.36a6.26,6.26,0,0,0-5.77-3.74,6.36,6.36,0,0,0-1,.08l-0.25,0a6.61,6.61,0,0,0-.79.2l-0.12,0v0a12,12,0,0,0,4-10.23c-0.32-4.77-2.79-7.87-7.14-9a12.35,12.35,0,0,0-6.8.24l-0.08-.24-0.13-.36A10.35,10.35,0,0,0,84,30C84.25,26.19,83,23.56,80.32,22.55Z"/><path class="cls-9" d="M114.36,59.27a10.45,10.45,0,0,0-3.2-.2,15.07,15.07,0,0,0-3.12.54,13.75,13.75,0,0,0-2.95,1.19,9,9,0,0,0-2.55,2c1.09-.17,2.08-0.41,3.06-0.65s2-.49,2.93-0.77,1.94-.56,2.9-0.9A23,23,0,0,0,114.36,59.27Z"/><path class="cls-9" d="M118.49,75.7a6,6,0,0,0,.2,3.39,4.42,4.42,0,0,0,2.58,2.58,7.41,7.41,0,0,0,3.6.32,16.48,16.48,0,0,0,3.34-.87c2-.78,4.05-1.52,6.1-2.21,1-.33,2.05-0.66,3.1-0.91a9.55,9.55,0,0,1,3.19-.4,7.14,7.14,0,0,0-3.32-.48,22.05,22.05,0,0,0-3.33.42,41,41,0,0,0-6.38,1.88,16.68,16.68,0,0,1-3,.88,6.85,6.85,0,0,1-2.9,0,3.6,3.6,0,0,1-2.22-1.63A7.28,7.28,0,0,1,118.49,75.7Z"/><path class="cls-9" d="M97.25,50.29c2.19-.62,4.14-1.28,6.16-1.78,1-.26,2-0.48,3-0.69l3.21-.56a8,8,0,0,0-3.3-.85,10.87,10.87,0,0,0-3.4.34,11.77,11.77,0,0,0-3.14,1.31A8.59,8.59,0,0,0,97.25,50.29Z"/><path class="cls-9" d="M89.15,9.73c0.49,2.61.75,5.09,0,7.23a8,8,0,0,1-1.81,2.89,22.69,22.69,0,0,1-2.93,2.41,7.72,7.72,0,0,0,3.84-1.32,6.7,6.7,0,0,0,2.62-3.38A7.5,7.5,0,0,0,91,13.32,8,8,0,0,0,89.15,9.73Z"/><path class="cls-9" d="M88.44,32.91a35,35,0,0,1,6.64-2.18,13.52,13.52,0,0,1,3.3-.21,16.59,16.59,0,0,1,3.45.69,6.42,6.42,0,0,0-3.18-2.08,8.17,8.17,0,0,0-3.89-.19,10.15,10.15,0,0,0-3.56,1.4A8.92,8.92,0,0,0,88.44,32.91Z"/><path class="cls-9" d="M10.69,107.25a11.11,11.11,0,0,0-2.88,3.25,9.86,9.86,0,0,0-1.43,4.26,6.94,6.94,0,0,0,.26,2.37,5.55,5.55,0,0,0,1.18,2.08,6.45,6.45,0,0,0,3.93,2A11.19,11.19,0,0,1,9,118.36a5.74,5.74,0,0,1-.76-3.48,14,14,0,0,1,.89-3.78C9.56,109.84,10.11,108.57,10.69,107.25Z"/><path class="cls-9" d="M73.18,148.56a31.37,31.37,0,0,0,12.42,5.58,29,29,0,0,0,13.79-.38,31,31,0,0,0,12.07-6.68,42.06,42.06,0,0,0,8.57-10.6,60.39,60.39,0,0,1-9.47,9.51,33.66,33.66,0,0,1-11.65,6,31.06,31.06,0,0,1-13.06.74,38.94,38.94,0,0,1-6.48-1.56A36.59,36.59,0,0,1,73.18,148.56Z"/><path class="cls-8" d="M136.49,155.08c-1.81,2.75-3.26,5.45-4.69,8.13l-4.23,8-4.17,8c-1.4,2.7-2.81,5.43-4.05,8.46l0.23,0.21a72,72,0,0,0,17.21-32.69Z"/><path class="cls-8" d="M147.34,187.69a9.89,9.89,0,0,0-3.71,2,11.93,11.93,0,0,0-2.42,2.81,12.13,12.13,0,0,0-1.46,3.41,10,10,0,0,0-.19,4.21l0.26,0.16c1.41-2,2.68-4.09,4-6.14s2.57-4.16,3.76-6.3Z"/><path class="cls-9" d="M79,141.76a3.65,3.65,0,0,0-1.7-1.4,11.55,11.55,0,0,0-2.12-.72,27.23,27.23,0,0,0-4.41-.63c-3-.18-5.93-0.06-8.87-0.07s-5.94.27-8.84,0.25a17.91,17.91,0,0,1-4.27-.45A12.38,12.38,0,0,1,45,136.93c-1.21-.79-2.36-1.69-3.5-2.61a25.63,25.63,0,0,1-3.25-2.9c-2-2.1-3.72-4.57-6.05-6.51a13.9,13.9,0,0,0-3.86-2.38A37,37,0,0,0,24,121.3a15,15,0,0,1-4.09-1.49,3.55,3.55,0,0,1-1.51-1.48,12.77,12.77,0,0,1-.58-2.12,12.8,12.8,0,0,0,.43,2.19,3.76,3.76,0,0,0,1.51,1.66,15.41,15.41,0,0,0,4.11,1.76,37.75,37.75,0,0,1,4.17,1.35,13.17,13.17,0,0,1,3.57,2.37c2.14,1.95,3.85,4.35,5.88,6.56a26.67,26.67,0,0,0,3.32,3,44.31,44.31,0,0,0,3.56,2.72,13.49,13.49,0,0,0,4.17,1.91,18.82,18.82,0,0,0,4.52.43c3,0,5.91-.38,8.85-0.4s5.9-.31,8.84-0.24a26.86,26.86,0,0,1,4.38.38,11.57,11.57,0,0,1,2.11.59A3.58,3.58,0,0,1,79,141.76Z"/><ellipse class="cls-11" cx="104.48" cy="141" rx="2.64" ry="2.81"/><circle class="cls-11" cx="109.08" cy="136.06" r="1.45"/><ellipse class="cls-11" cx="98.09" cy="139.29" rx="1.36" ry="1.45"/><circle class="cls-11" cx="95.87" cy="145.85" r="1.87"/><ellipse class="cls-11" cx="89.99" cy="144.15" rx="1.28" ry="1.36"/><path class="cls-8" d="M99.27,166.45A21.5,21.5,0,0,1,91,170a41.21,41.21,0,0,1-4.5.54c-1.54.14-3.06,0.28-4.57,0.33a24.73,24.73,0,0,1-8.82-.86,22.39,22.39,0,0,1-7.76-4.63,16.18,16.18,0,0,0,7.15,6.22,17.45,17.45,0,0,0,4.71,1.28,29.56,29.56,0,0,0,4.82.16q2.38-.15,4.7-0.47a29.3,29.3,0,0,0,4.68-.94A15.82,15.82,0,0,0,99.27,166.45Z"/><path class="cls-8" d="M103,170.73a8.11,8.11,0,0,1-2.52,2.71,18.76,18.76,0,0,1-3.15,1.74c-1.11.5-2.27,0.94-3.45,1.35s-2.4.79-3.72,1.16a8.71,8.71,0,0,0,4.07.52,12.4,12.4,0,0,0,4-1,9.75,9.75,0,0,0,3.42-2.48A5.06,5.06,0,0,0,103,170.73Z"/><path class="cls-8" d="M162,52.81c1.34,1.64,3.11,2.76,4.51,4.5a22.27,22.27,0,0,1,3,5.76A47.4,47.4,0,0,1,171.9,75.7a31.65,31.65,0,0,1-2.26,12.72,23.91,23.91,0,0,1-3.17,5.64,14.51,14.51,0,0,1-4.85,4.15c3.27-2.71,5.16-6.51,6.42-10.37a36.59,36.59,0,0,0,1.34-6,32.22,32.22,0,0,0,.33-6.08c-0.08-2-.34-4.12-0.61-6.15a47.82,47.82,0,0,0-1.2-6,25.52,25.52,0,0,0-2.25-5.67C164.65,56.2,163,54.73,162,52.81Z"/><path class="cls-8" d="M180.5,67.28c0.51,2,1,3.86,1.39,5.83a19.64,19.64,0,0,1,.39,6.16,15.84,15.84,0,0,1-2,5.9,37.91,37.91,0,0,1-3.4,5,45.31,45.31,0,0,1,1.84-5.7A25.27,25.27,0,0,0,180.1,79a39.65,39.65,0,0,0,.09-5.72A26.84,26.84,0,0,1,180.5,67.28Z"/><ellipse class="cls-5" cx="65.89" cy="116.44" rx="1.14" ry="1.75"/></svg>